<svg width="20" height="21" viewBox="0 0 20 21" fill="none" xmlns="http://www.w3.org/2000/svg">
<path d="M10 2.3894C8.39303 2.3894 6.82214 2.86593 5.486 3.75871C4.14985 4.6515 3.10844 5.92045 2.49348 7.4051C1.87852 8.88975 1.71762 10.5234 2.03112 12.0995C2.34463 13.6756 3.11846 15.1233 4.25476 16.2596C5.39106 17.3959 6.8388 18.1698 8.4149 18.4833C9.99099 18.7968 11.6247 18.6359 13.1093 18.0209C14.594 17.406 15.8629 16.3646 16.7557 15.0284C17.6485 13.6923 18.125 12.1214 18.125 10.5144C18.1227 8.36022 17.266 6.29491 15.7427 4.77167C14.2195 3.24843 12.1542 2.39168 10 2.3894ZM10 17.3894C8.64026 17.3894 7.31105 16.9862 6.18046 16.2308C5.04987 15.4753 4.16868 14.4016 3.64833 13.1454C3.12798 11.8891 2.99183 10.5068 3.2571 9.17316C3.52238 7.83954 4.17716 6.61453 5.13864 5.65305C6.10013 4.69156 7.32514 4.03678 8.65876 3.77151C9.99238 3.50623 11.3747 3.64238 12.631 4.16273C13.8872 4.68308 14.9609 5.56427 15.7164 6.69486C16.4718 7.82545 16.875 9.15466 16.875 10.5144C16.8729 12.3371 16.1479 14.0846 14.8591 15.3735C13.5702 16.6623 11.8227 17.3873 10 17.3894ZM11.25 14.2644C11.25 14.4302 11.1842 14.5891 11.0669 14.7063C10.9497 14.8236 10.7908 14.8894 10.625 14.8894C10.2935 14.8894 9.97554 14.7577 9.74112 14.5233C9.5067 14.2889 9.375 13.9709 9.375 13.6394V10.5144C9.20924 10.5144 9.05027 10.4486 8.93306 10.3313C8.81585 10.2141 8.75 10.0552 8.75 9.8894C8.75 9.72364 8.81585 9.56467 8.93306 9.44746C9.05027 9.33025 9.20924 9.2644 9.375 9.2644C9.70652 9.2644 10.0245 9.3961 10.2589 9.63052C10.4933 9.86494 10.625 10.1829 10.625 10.5144V13.6394C10.7908 13.6394 10.9497 13.7053 11.0669 13.8225C11.1842 13.9397 11.25 14.0986 11.25 14.2644ZM8.75 7.0769C8.75 6.89148 8.80499 6.71023 8.908 6.55606C9.01101 6.40189 9.15743 6.28172 9.32874 6.21077C9.50004 6.13981 9.68854 6.12124 9.8704 6.15742C10.0523 6.19359 10.2193 6.28288 10.3504 6.41399C10.4815 6.5451 10.5708 6.71215 10.607 6.89401C10.6432 7.07586 10.6246 7.26436 10.5536 7.43567C10.4827 7.60698 10.3625 7.75339 10.2084 7.85641C10.0542 7.95942 9.87292 8.0144 9.6875 8.0144C9.43886 8.0144 9.20041 7.91563 9.02459 7.73982C8.84878 7.564 8.75 7.32554 8.75 7.0769Z" fill="#666666"/>
</svg>
