<svg width="22" height="22" viewBox="0 0 22 22" fill="none" xmlns="http://www.w3.org/2000/svg">
<path d="M14.4912 13.5283C14.7205 13.3106 15.025 13.1895 15.3418 13.1895C15.6544 13.1895 15.9544 13.3082 16.1826 13.5205L16.1914 13.5283C16.2024 13.5371 16.2198 13.5499 16.2422 13.5674C16.2867 13.6022 16.3499 13.6512 16.4258 13.71C16.578 13.8277 16.7794 13.9838 16.9805 14.1387C17.1814 14.2934 17.382 14.447 17.5322 14.5625C17.6073 14.6202 17.6701 14.6685 17.7139 14.7021C17.7357 14.719 17.7529 14.7322 17.7646 14.7412C17.7705 14.7457 17.7753 14.7496 17.7783 14.752C17.7795 14.7529 17.7806 14.7534 17.7812 14.7539L17.7822 14.7549L18.2344 15.1025L18.0938 15.2422C18.1444 15.3917 18.167 15.5513 18.1582 15.7119C18.1414 16.0172 18.012 16.304 17.7979 16.5205L17.1895 17.2207L17.1729 17.2393L17.1553 17.2559C15.96 18.3855 14.2574 18.3484 12.6064 17.7588C10.9404 17.1637 9.18464 15.9658 7.69531 14.5215C6.20598 13.0772 4.94361 11.3487 4.29688 9.66211C3.65272 7.98218 3.58568 6.23276 4.69336 4.90137L4.71973 4.87109L4.75 4.84473L5.51758 4.17676L5.58105 4.12012C5.79249 3.94686 6.05656 3.84793 6.33203 3.84082C6.60735 3.83376 6.87571 3.91907 7.0957 4.08105L7.1875 4.15527L7.22168 4.18652L7.25 4.22266L7.25098 4.22363C7.25157 4.2244 7.25275 4.22603 7.25391 4.22754C7.25623 4.23056 7.2592 4.2354 7.26367 4.24121C7.27267 4.25292 7.28593 4.27013 7.30273 4.29199C7.33632 4.33568 7.38475 4.39773 7.44238 4.47266C7.55789 4.62282 7.71235 4.82342 7.86719 5.02441C8.02201 5.22538 8.17711 5.42684 8.29492 5.5791C8.3539 5.65532 8.40351 5.71887 8.43848 5.76367C8.45604 5.78618 8.46957 5.80317 8.47852 5.81445C8.48296 5.82005 8.48539 5.82307 8.48633 5.82422L8.46387 5.7998C8.68975 6.03054 8.81641 6.34099 8.81641 6.66406C8.81629 6.97911 8.69504 7.28102 8.47949 7.50977L8.47559 7.51465C8.46789 7.52407 8.45669 7.53864 8.44141 7.55762C8.41109 7.59528 8.36859 7.64878 8.31738 7.71289C8.21486 7.84125 8.07916 8.01116 7.94434 8.18066C7.80966 8.34998 7.67572 8.51895 7.5752 8.64551C7.52492 8.7088 7.4824 8.76196 7.45312 8.79883C7.43861 8.8171 7.42771 8.83199 7.41992 8.8418C7.41604 8.84669 7.41217 8.85001 7.41016 8.85254C7.40921 8.85373 7.40869 8.85485 7.4082 8.85547V8.85645H7.40723L7.40527 8.85938C7.38653 8.88262 7.37454 8.9109 7.37012 8.94043C7.36577 8.96981 7.36885 8.99977 7.37988 9.02734L7.38477 9.03809H7.38379C7.86191 10.3158 8.60969 11.4766 9.5752 12.4404C10.42 13.2837 11.4149 13.959 12.5068 14.4336L12.9805 14.625L12.9854 14.627C13.0124 14.6373 13.0417 14.6401 13.0703 14.6357C13.0991 14.6313 13.1265 14.6197 13.1494 14.6016C13.1501 14.6011 13.1512 14.6006 13.1523 14.5996C13.1548 14.5976 13.1584 14.5946 13.1631 14.5908C13.1729 14.583 13.1877 14.5712 13.2061 14.5566C13.2429 14.5273 13.2961 14.485 13.3594 14.4346C13.4857 14.3338 13.6542 14.1994 13.8232 14.0645C13.9925 13.9293 14.1627 13.7933 14.291 13.6904C14.3553 13.6389 14.4095 13.596 14.4473 13.5654C14.4661 13.5502 14.4798 13.538 14.4893 13.5303L14.4912 13.5283ZM14.4912 13.5283C14.4948 13.5254 14.4974 13.524 14.498 13.5234C14.5065 13.5163 14.4993 13.5212 14.4873 13.5322C14.4886 13.531 14.4899 13.5296 14.4912 13.5283ZM6.37988 3.5C6.78285 3.50307 7.16825 3.66296 7.45605 3.94434C7.46467 3.95529 7.4756 3.96979 7.48926 3.9873C7.52452 4.03252 7.57447 4.09623 7.63379 4.17285C7.75234 4.32598 7.90867 4.52848 8.06445 4.73047C8.22027 4.9325 8.37593 5.13423 8.49219 5.28516C8.55032 5.36062 8.59896 5.42381 8.63281 5.46777C8.64964 5.48963 8.66285 5.50684 8.67188 5.51855C8.6764 5.52443 8.68028 5.52919 8.68262 5.53223C8.68351 5.53339 8.68404 5.53447 8.68457 5.53516L8.68555 5.53613L8.70215 5.55762L8.7207 5.57715C8.99938 5.86918 9.1543 6.25746 9.1543 6.66113C9.15429 7.06481 8.99938 7.45308 8.7207 7.74512L8.70508 7.76172L8.69043 7.7793L7.91797 8.75098L7.73535 8.98145L7.84668 9.25293C8.29863 10.3535 8.9631 11.3543 9.80273 12.1973C10.6425 13.0403 11.6412 13.7088 12.7402 14.165L13.0127 14.2783L13.2432 14.0947L14.2207 13.3174L14.2393 13.3027L14.2549 13.2871C14.547 13.0082 14.936 12.8525 15.3398 12.8525C15.7435 12.8527 16.1319 13.0083 16.4238 13.2871L16.4434 13.3057L16.4648 13.3223L16.4688 13.3262C16.4718 13.3285 16.4766 13.3315 16.4824 13.3359C16.4941 13.3449 16.5113 13.3582 16.5332 13.375C16.5772 13.4088 16.6404 13.4576 16.7158 13.5156C16.8666 13.6315 17.0678 13.7861 17.2695 13.9414C17.4715 14.0968 17.6741 14.2528 17.8271 14.3711C17.9036 14.4302 17.9677 14.4796 18.0127 14.5146C18.0311 14.529 18.0457 14.5412 18.0566 14.5498L18.0645 14.5576C18.3437 14.8495 18.501 15.2378 18.501 15.6426C18.5009 16.058 18.3363 16.4568 18.043 16.751L18.0303 16.7627L18.0195 16.7754L17.4297 17.4541C16.2404 18.583 14.6023 18.7514 12.7754 18.1885C10.9376 17.6222 8.99014 16.3323 7.34668 14.6934C5.70327 13.0545 4.40528 11.1074 3.82715 9.26758C3.25259 7.43896 3.40609 5.79812 4.5127 4.60645L5.26172 3.95996L5.2832 3.94043C5.57669 3.65531 5.97072 3.49694 6.37988 3.5ZM12.3242 3.50391C13.9623 3.50562 15.5331 4.1571 16.6914 5.31543C17.7773 6.40137 18.4179 7.84945 18.4951 9.37598L18.5029 9.68262C18.5027 9.7268 18.4854 9.76951 18.4541 9.80078C18.4226 9.83228 18.3795 9.84959 18.335 9.84961C18.2904 9.84961 18.2473 9.83226 18.2158 9.80078C18.1843 9.76928 18.167 9.72619 18.167 9.68164V9.68066C18.1654 8.13194 17.5491 6.64699 16.4541 5.55176C15.4275 4.52504 14.0585 3.91887 12.6152 3.8457L12.3252 3.83887L12.2607 3.82617C12.2405 3.81781 12.2219 3.80488 12.2061 3.78906C12.1747 3.75764 12.1573 3.71526 12.1572 3.6709L12.1699 3.60742C12.1783 3.58722 12.1903 3.56849 12.2061 3.55273C12.2374 3.52144 12.28 3.50409 12.3242 3.50391ZM12.3242 6.17383C13.2542 6.17476 14.1461 6.54457 14.8037 7.20215C15.4611 7.85961 15.831 8.75094 15.832 9.68066L15.8193 9.74512C15.811 9.76527 15.798 9.78408 15.7822 9.7998C15.7508 9.831 15.7084 9.84859 15.6641 9.84863C15.6196 9.84863 15.5764 9.83125 15.5449 9.7998C15.5134 9.76831 15.4961 9.7252 15.4961 9.68066C15.4961 8.83974 15.162 8.03314 14.5674 7.43848C13.9728 6.84387 13.1661 6.50984 12.3252 6.50977C12.2806 6.50977 12.2376 6.49147 12.2061 6.45996C12.1748 6.42852 12.1573 6.38617 12.1572 6.3418C12.1572 6.29724 12.1745 6.25416 12.2061 6.22266C12.2374 6.19135 12.2799 6.17401 12.3242 6.17383Z" fill="#5E97D4"/>
<path d="M14.4912 13.5283C14.7205 13.3106 15.025 13.1895 15.3418 13.1895C15.6544 13.1895 15.9544 13.3082 16.1826 13.5205L16.1914 13.5283C16.2024 13.5371 16.2198 13.5499 16.2422 13.5674C16.2867 13.6022 16.3499 13.6512 16.4258 13.71C16.578 13.8277 16.7794 13.9838 16.9805 14.1387C17.1814 14.2934 17.382 14.447 17.5322 14.5625C17.6073 14.6202 17.6701 14.6685 17.7139 14.7021C17.7357 14.719 17.7529 14.7322 17.7646 14.7412C17.7705 14.7457 17.7753 14.7496 17.7783 14.752C17.7795 14.7529 17.7806 14.7534 17.7812 14.7539L17.7822 14.7549L18.2344 15.1025L18.0938 15.2422C18.1444 15.3917 18.167 15.5513 18.1582 15.7119C18.1414 16.0172 18.012 16.304 17.7979 16.5205L17.1895 17.2207L17.1729 17.2393L17.1553 17.2559C15.96 18.3855 14.2574 18.3484 12.6064 17.7588C10.9404 17.1637 9.18464 15.9658 7.69531 14.5215C6.20598 13.0772 4.94361 11.3487 4.29688 9.66211C3.65272 7.98218 3.58568 6.23276 4.69336 4.90137L4.71973 4.87109L4.75 4.84473L5.51758 4.17676L5.58105 4.12012C5.79249 3.94686 6.05656 3.84793 6.33203 3.84082C6.60735 3.83376 6.87571 3.91907 7.0957 4.08105L7.1875 4.15527L7.22168 4.18652L7.25 4.22266L7.25098 4.22363C7.25157 4.2244 7.25275 4.22603 7.25391 4.22754C7.25623 4.23056 7.2592 4.2354 7.26367 4.24121C7.27267 4.25292 7.28593 4.27013 7.30273 4.29199C7.33632 4.33568 7.38475 4.39773 7.44238 4.47266C7.55789 4.62282 7.71235 4.82342 7.86719 5.02441C8.02201 5.22538 8.17711 5.42684 8.29492 5.5791C8.3539 5.65532 8.40351 5.71887 8.43848 5.76367C8.45604 5.78618 8.46957 5.80317 8.47852 5.81445C8.48296 5.82005 8.48539 5.82307 8.48633 5.82422L8.46387 5.7998C8.68975 6.03054 8.81641 6.34099 8.81641 6.66406C8.81629 6.97911 8.69504 7.28102 8.47949 7.50977L8.47559 7.51465C8.46789 7.52407 8.45669 7.53864 8.44141 7.55762C8.41109 7.59528 8.36859 7.64878 8.31738 7.71289C8.21486 7.84125 8.07916 8.01116 7.94434 8.18066C7.80966 8.34998 7.67572 8.51895 7.5752 8.64551C7.52492 8.7088 7.4824 8.76196 7.45312 8.79883C7.43861 8.8171 7.42771 8.83199 7.41992 8.8418C7.41604 8.84669 7.41217 8.85001 7.41016 8.85254C7.40921 8.85373 7.40869 8.85485 7.4082 8.85547V8.85645H7.40723L7.40527 8.85938C7.38653 8.88262 7.37454 8.9109 7.37012 8.94043C7.36577 8.96981 7.36885 8.99977 7.37988 9.02734L7.38477 9.03809H7.38379C7.86191 10.3158 8.60969 11.4766 9.5752 12.4404C10.42 13.2837 11.4149 13.959 12.5068 14.4336L12.9805 14.625L12.9854 14.627C13.0124 14.6373 13.0417 14.6401 13.0703 14.6357C13.0991 14.6313 13.1265 14.6197 13.1494 14.6016C13.1501 14.6011 13.1512 14.6006 13.1523 14.5996C13.1548 14.5976 13.1584 14.5946 13.1631 14.5908C13.1729 14.583 13.1877 14.5712 13.2061 14.5566C13.2429 14.5273 13.2961 14.485 13.3594 14.4346C13.4857 14.3338 13.6542 14.1994 13.8232 14.0645C13.9925 13.9293 14.1627 13.7933 14.291 13.6904C14.3553 13.6389 14.4095 13.596 14.4473 13.5654C14.4661 13.5502 14.4798 13.538 14.4893 13.5303L14.4912 13.5283ZM14.4912 13.5283C14.4948 13.5254 14.4974 13.524 14.498 13.5234C14.5065 13.5163 14.4993 13.5212 14.4873 13.5322C14.4886 13.531 14.4899 13.5296 14.4912 13.5283ZM6.37988 3.5C6.78285 3.50307 7.16825 3.66296 7.45605 3.94434C7.46467 3.95529 7.4756 3.96979 7.48926 3.9873C7.52452 4.03252 7.57447 4.09623 7.63379 4.17285C7.75234 4.32598 7.90867 4.52848 8.06445 4.73047C8.22027 4.9325 8.37593 5.13423 8.49219 5.28516C8.55032 5.36062 8.59896 5.42381 8.63281 5.46777C8.64964 5.48963 8.66285 5.50684 8.67188 5.51855C8.6764 5.52443 8.68028 5.52919 8.68262 5.53223C8.68351 5.53339 8.68404 5.53447 8.68457 5.53516L8.68555 5.53613L8.70215 5.55762L8.7207 5.57715C8.99938 5.86918 9.1543 6.25746 9.1543 6.66113C9.15429 7.06481 8.99938 7.45308 8.7207 7.74512L8.70508 7.76172L8.69043 7.7793L7.91797 8.75098L7.73535 8.98145L7.84668 9.25293C8.29863 10.3535 8.9631 11.3543 9.80273 12.1973C10.6425 13.0403 11.6412 13.7088 12.7402 14.165L13.0127 14.2783L13.2432 14.0947L14.2207 13.3174L14.2393 13.3027L14.2549 13.2871C14.547 13.0082 14.936 12.8525 15.3398 12.8525C15.7435 12.8527 16.1319 13.0083 16.4238 13.2871L16.4434 13.3057L16.4648 13.3223L16.4688 13.3262C16.4718 13.3285 16.4766 13.3315 16.4824 13.3359C16.4941 13.3449 16.5113 13.3582 16.5332 13.375C16.5772 13.4088 16.6404 13.4576 16.7158 13.5156C16.8666 13.6315 17.0678 13.7861 17.2695 13.9414C17.4715 14.0968 17.6741 14.2528 17.8271 14.3711C17.9036 14.4302 17.9677 14.4796 18.0127 14.5146C18.0311 14.529 18.0457 14.5412 18.0566 14.5498L18.0645 14.5576C18.3437 14.8495 18.501 15.2378 18.501 15.6426C18.5009 16.058 18.3363 16.4568 18.043 16.751L18.0303 16.7627L18.0195 16.7754L17.4297 17.4541C16.2404 18.583 14.6023 18.7514 12.7754 18.1885C10.9376 17.6222 8.99014 16.3323 7.34668 14.6934C5.70327 13.0545 4.40528 11.1074 3.82715 9.26758C3.25259 7.43896 3.40609 5.79812 4.5127 4.60645L5.26172 3.95996L5.2832 3.94043C5.57669 3.65531 5.97072 3.49694 6.37988 3.5ZM12.3242 3.50391C13.9623 3.50562 15.5331 4.1571 16.6914 5.31543C17.7773 6.40137 18.4179 7.84945 18.4951 9.37598L18.5029 9.68262C18.5027 9.7268 18.4854 9.76951 18.4541 9.80078C18.4226 9.83228 18.3795 9.84959 18.335 9.84961C18.2904 9.84961 18.2473 9.83226 18.2158 9.80078C18.1843 9.76928 18.167 9.72619 18.167 9.68164V9.68066C18.1654 8.13194 17.5491 6.64699 16.4541 5.55176C15.4275 4.52504 14.0585 3.91887 12.6152 3.8457L12.3252 3.83887L12.2607 3.82617C12.2405 3.81781 12.2219 3.80488 12.2061 3.78906C12.1747 3.75764 12.1573 3.71526 12.1572 3.6709L12.1699 3.60742C12.1783 3.58722 12.1903 3.56849 12.2061 3.55273C12.2374 3.52144 12.28 3.50409 12.3242 3.50391ZM12.3242 6.17383C13.2542 6.17476 14.1461 6.54457 14.8037 7.20215C15.4611 7.85961 15.831 8.75094 15.832 9.68066L15.8193 9.74512C15.811 9.76527 15.798 9.78408 15.7822 9.7998C15.7508 9.831 15.7084 9.84859 15.6641 9.84863C15.6196 9.84863 15.5764 9.83125 15.5449 9.7998C15.5134 9.76831 15.4961 9.7252 15.4961 9.68066C15.4961 8.83974 15.162 8.03314 14.5674 7.43848C13.9728 6.84387 13.1661 6.50984 12.3252 6.50977C12.2806 6.50977 12.2376 6.49147 12.2061 6.45996C12.1748 6.42852 12.1573 6.38617 12.1572 6.3418C12.1572 6.29724 12.1745 6.25416 12.2061 6.22266C12.2374 6.19135 12.2799 6.17401 12.3242 6.17383Z" fill="#5E97D4"/>
<path d="M14.4912 13.5283C14.7205 13.3106 15.025 13.1895 15.3418 13.1895C15.6544 13.1895 15.9544 13.3082 16.1826 13.5205L16.1914 13.5283C16.2024 13.5371 16.2198 13.5499 16.2422 13.5674C16.2867 13.6022 16.3499 13.6512 16.4258 13.71C16.578 13.8277 16.7794 13.9838 16.9805 14.1387C17.1814 14.2934 17.382 14.447 17.5322 14.5625C17.6073 14.6202 17.6701 14.6685 17.7139 14.7021C17.7357 14.719 17.7529 14.7322 17.7646 14.7412C17.7705 14.7457 17.7753 14.7496 17.7783 14.752C17.7795 14.7529 17.7806 14.7534 17.7812 14.7539L17.7822 14.7549L18.2344 15.1025L18.0938 15.2422C18.1444 15.3917 18.167 15.5513 18.1582 15.7119C18.1414 16.0172 18.012 16.304 17.7979 16.5205L17.1895 17.2207L17.1729 17.2393L17.1553 17.2559C15.96 18.3855 14.2574 18.3484 12.6064 17.7588C10.9404 17.1637 9.18464 15.9658 7.69531 14.5215C6.20598 13.0772 4.94361 11.3487 4.29688 9.66211C3.65272 7.98218 3.58568 6.23276 4.69336 4.90137L4.71973 4.87109L4.75 4.84473L5.51758 4.17676L5.58105 4.12012C5.79249 3.94686 6.05656 3.84793 6.33203 3.84082C6.60735 3.83376 6.87571 3.91907 7.0957 4.08105L7.1875 4.15527L7.22168 4.18652L7.25 4.22266L7.25098 4.22363C7.25157 4.2244 7.25275 4.22603 7.25391 4.22754C7.25623 4.23056 7.2592 4.2354 7.26367 4.24121C7.27267 4.25292 7.28593 4.27013 7.30273 4.29199C7.33632 4.33568 7.38475 4.39773 7.44238 4.47266C7.55789 4.62282 7.71235 4.82342 7.86719 5.02441C8.02201 5.22538 8.17711 5.42684 8.29492 5.5791C8.3539 5.65532 8.40351 5.71887 8.43848 5.76367C8.45604 5.78618 8.46957 5.80317 8.47852 5.81445C8.48296 5.82005 8.48539 5.82307 8.48633 5.82422L8.46387 5.7998C8.68975 6.03054 8.81641 6.34099 8.81641 6.66406C8.81629 6.97911 8.69504 7.28102 8.47949 7.50977L8.47559 7.51465C8.46789 7.52407 8.45669 7.53864 8.44141 7.55762C8.41109 7.59528 8.36859 7.64878 8.31738 7.71289C8.21486 7.84125 8.07916 8.01116 7.94434 8.18066C7.80966 8.34998 7.67572 8.51895 7.5752 8.64551C7.52492 8.7088 7.4824 8.76196 7.45312 8.79883C7.43861 8.8171 7.42771 8.83199 7.41992 8.8418C7.41604 8.84669 7.41217 8.85001 7.41016 8.85254C7.40921 8.85373 7.40869 8.85485 7.4082 8.85547V8.85645H7.40723L7.40527 8.85938C7.38653 8.88262 7.37454 8.9109 7.37012 8.94043C7.36577 8.96981 7.36885 8.99977 7.37988 9.02734L7.38477 9.03809H7.38379C7.86191 10.3158 8.60969 11.4766 9.5752 12.4404C10.42 13.2837 11.4149 13.959 12.5068 14.4336L12.9805 14.625L12.9854 14.627C13.0124 14.6373 13.0417 14.6401 13.0703 14.6357C13.0991 14.6313 13.1265 14.6197 13.1494 14.6016C13.1501 14.6011 13.1512 14.6006 13.1523 14.5996C13.1548 14.5976 13.1584 14.5946 13.1631 14.5908C13.1729 14.583 13.1877 14.5712 13.2061 14.5566C13.2429 14.5273 13.2961 14.485 13.3594 14.4346C13.4857 14.3338 13.6542 14.1994 13.8232 14.0645C13.9925 13.9293 14.1627 13.7933 14.291 13.6904C14.3553 13.6389 14.4095 13.596 14.4473 13.5654C14.4661 13.5502 14.4798 13.538 14.4893 13.5303L14.4912 13.5283ZM14.4912 13.5283C14.4948 13.5254 14.4974 13.524 14.498 13.5234C14.5065 13.5163 14.4993 13.5212 14.4873 13.5322C14.4886 13.531 14.4899 13.5296 14.4912 13.5283ZM6.37988 3.5C6.78285 3.50307 7.16825 3.66296 7.45605 3.94434C7.46467 3.95529 7.4756 3.96979 7.48926 3.9873C7.52452 4.03252 7.57447 4.09623 7.63379 4.17285C7.75234 4.32598 7.90867 4.52848 8.06445 4.73047C8.22027 4.9325 8.37593 5.13423 8.49219 5.28516C8.55032 5.36062 8.59896 5.42381 8.63281 5.46777C8.64964 5.48963 8.66285 5.50684 8.67188 5.51855C8.6764 5.52443 8.68028 5.52919 8.68262 5.53223C8.68351 5.53339 8.68404 5.53447 8.68457 5.53516L8.68555 5.53613L8.70215 5.55762L8.7207 5.57715C8.99938 5.86918 9.1543 6.25746 9.1543 6.66113C9.15429 7.06481 8.99938 7.45308 8.7207 7.74512L8.70508 7.76172L8.69043 7.7793L7.91797 8.75098L7.73535 8.98145L7.84668 9.25293C8.29863 10.3535 8.9631 11.3543 9.80273 12.1973C10.6425 13.0403 11.6412 13.7088 12.7402 14.165L13.0127 14.2783L13.2432 14.0947L14.2207 13.3174L14.2393 13.3027L14.2549 13.2871C14.547 13.0082 14.936 12.8525 15.3398 12.8525C15.7435 12.8527 16.1319 13.0083 16.4238 13.2871L16.4434 13.3057L16.4648 13.3223L16.4688 13.3262C16.4718 13.3285 16.4766 13.3315 16.4824 13.3359C16.4941 13.3449 16.5113 13.3582 16.5332 13.375C16.5772 13.4088 16.6404 13.4576 16.7158 13.5156C16.8666 13.6315 17.0678 13.7861 17.2695 13.9414C17.4715 14.0968 17.6741 14.2528 17.8271 14.3711C17.9036 14.4302 17.9677 14.4796 18.0127 14.5146C18.0311 14.529 18.0457 14.5412 18.0566 14.5498L18.0645 14.5576C18.3437 14.8495 18.501 15.2378 18.501 15.6426C18.5009 16.058 18.3363 16.4568 18.043 16.751L18.0303 16.7627L18.0195 16.7754L17.4297 17.4541C16.2404 18.583 14.6023 18.7514 12.7754 18.1885C10.9376 17.6222 8.99014 16.3323 7.34668 14.6934C5.70327 13.0545 4.40528 11.1074 3.82715 9.26758C3.25259 7.43896 3.40609 5.79812 4.5127 4.60645L5.26172 3.95996L5.2832 3.94043C5.57669 3.65531 5.97072 3.49694 6.37988 3.5ZM12.3242 3.50391C13.9623 3.50562 15.5331 4.1571 16.6914 5.31543C17.7773 6.40137 18.4179 7.84945 18.4951 9.37598L18.5029 9.68262C18.5027 9.7268 18.4854 9.76951 18.4541 9.80078C18.4226 9.83228 18.3795 9.84959 18.335 9.84961C18.2904 9.84961 18.2473 9.83226 18.2158 9.80078C18.1843 9.76928 18.167 9.72619 18.167 9.68164V9.68066C18.1654 8.13194 17.5491 6.64699 16.4541 5.55176C15.4275 4.52504 14.0585 3.91887 12.6152 3.8457L12.3252 3.83887L12.2607 3.82617C12.2405 3.81781 12.2219 3.80488 12.2061 3.78906C12.1747 3.75764 12.1573 3.71526 12.1572 3.6709L12.1699 3.60742C12.1783 3.58722 12.1903 3.56849 12.2061 3.55273C12.2374 3.52144 12.28 3.50409 12.3242 3.50391ZM12.3242 6.17383C13.2542 6.17476 14.1461 6.54457 14.8037 7.20215C15.4611 7.85961 15.831 8.75094 15.832 9.68066L15.8193 9.74512C15.811 9.76527 15.798 9.78408 15.7822 9.7998C15.7508 9.831 15.7084 9.84859 15.6641 9.84863C15.6196 9.84863 15.5764 9.83125 15.5449 9.7998C15.5134 9.76831 15.4961 9.7252 15.4961 9.68066C15.4961 8.83974 15.162 8.03314 14.5674 7.43848C13.9728 6.84387 13.1661 6.50984 12.3252 6.50977C12.2806 6.50977 12.2376 6.49147 12.2061 6.45996C12.1748 6.42852 12.1573 6.38617 12.1572 6.3418C12.1572 6.29724 12.1745 6.25416 12.2061 6.22266C12.2374 6.19135 12.2799 6.17401 12.3242 6.17383Z" stroke="#5E97D4"/>
</svg>
