<svg width="20" height="21" viewBox="0 0 20 21" fill="none" xmlns="http://www.w3.org/2000/svg">
<path d="M18.125 17.3894H16.25V3.6394C16.25 3.30788 16.1183 2.98994 15.8839 2.75552C15.6495 2.5211 15.3315 2.3894 15 2.3894H5C4.66848 2.3894 4.35054 2.5211 4.11612 2.75552C3.8817 2.98994 3.75 3.30788 3.75 3.6394V17.3894H1.875C1.70924 17.3894 1.55027 17.4553 1.43306 17.5725C1.31585 17.6897 1.25 17.8486 1.25 18.0144C1.25 18.1802 1.31585 18.3391 1.43306 18.4563C1.55027 18.5736 1.70924 18.6394 1.875 18.6394H18.125C18.2908 18.6394 18.4497 18.5736 18.5669 18.4563C18.6842 18.3391 18.75 18.1802 18.75 18.0144C18.75 17.8486 18.6842 17.6897 18.5669 17.5725C18.4497 17.4553 18.2908 17.3894 18.125 17.3894ZM15 17.3894H13.75V3.6394H15V17.3894ZM5 3.6394H12.5V17.3894H5V3.6394ZM11.25 10.8269C11.25 11.0123 11.195 11.1936 11.092 11.3478C10.989 11.5019 10.8426 11.6221 10.6713 11.693C10.5 11.764 10.3115 11.7826 10.1296 11.7464C9.94775 11.7102 9.7807 11.6209 9.64959 11.4898C9.51848 11.3587 9.42919 11.1917 9.39301 11.0098C9.35684 10.8279 9.37541 10.6394 9.44636 10.4681C9.51732 10.2968 9.63748 10.1504 9.79165 10.0474C9.94582 9.94439 10.1271 9.8894 10.3125 9.8894C10.5611 9.8894 10.7996 9.98818 10.9754 10.164C11.1512 10.3398 11.25 10.5783 11.25 10.8269Z" fill="#666666"/>
</svg>
