<svg width="20" height="21" viewBox="0 0 20 21" fill="none" xmlns="http://www.w3.org/2000/svg">
<path d="M16.875 6.7644H14.375V4.2644C14.375 3.93288 14.2433 3.61494 14.0089 3.38052C13.7745 3.1461 13.4565 3.0144 13.125 3.0144H3.125C2.79348 3.0144 2.47554 3.1461 2.24112 3.38052C2.0067 3.61494 1.875 3.93288 1.875 4.2644V14.2644C1.87537 14.382 1.9089 14.4971 1.97174 14.5965C2.03458 14.6959 2.12418 14.7755 2.23025 14.8262C2.33631 14.877 2.45455 14.8968 2.57136 14.8834C2.68818 14.8699 2.79884 14.8238 2.89062 14.7503L5.625 12.5457V14.8894C5.625 15.2209 5.7567 15.5389 5.99112 15.7733C6.22554 16.0077 6.54348 16.1394 6.875 16.1394H14.1867L17.1094 18.5003C17.22 18.5898 17.3578 18.6389 17.5 18.6394C17.6658 18.6394 17.8247 18.5736 17.9419 18.4563C18.0592 18.3391 18.125 18.1802 18.125 18.0144V8.0144C18.125 7.68288 17.9933 7.36494 17.7589 7.13052C17.5245 6.8961 17.2065 6.7644 16.875 6.7644ZM5.19922 11.2785L3.125 12.9558V4.2644H13.125V11.1394H5.59219C5.44914 11.1394 5.31044 11.1885 5.19922 11.2785ZM16.875 16.7058L14.8008 15.0285C14.6902 14.939 14.5524 14.89 14.4102 14.8894H6.875V12.3894H13.125C13.4565 12.3894 13.7745 12.2577 14.0089 12.0233C14.2433 11.7889 14.375 11.4709 14.375 11.1394V8.0144H16.875V16.7058Z" fill="#666666"/>
<mask id="path-2-inside-1_45_4169" fill="white">
<path d="M11 6.5144C11 7.40534 10.2353 8.14284 9.25 8.25065V8.5144C9.25 8.58071 9.22366 8.6443 9.17678 8.69118C9.12989 8.73807 9.0663 8.7644 9 8.7644C8.9337 8.7644 8.87011 8.73807 8.82322 8.69118C8.77634 8.6443 8.75 8.58071 8.75 8.5144V8.0144C8.75 7.9481 8.77634 7.88451 8.82322 7.83763C8.87011 7.79074 8.9337 7.7644 9 7.7644C9.82719 7.7644 10.5 7.20378 10.5 6.5144C10.5 5.82503 9.82719 5.2644 9 5.2644C8.17281 5.2644 7.5 5.82503 7.5 6.5144C7.5 6.58071 7.47366 6.6443 7.42678 6.69118C7.37989 6.73807 7.3163 6.7644 7.25 6.7644C7.1837 6.7644 7.12011 6.73807 7.07322 6.69118C7.02634 6.6443 7 6.58071 7 6.5144C7 5.5494 7.89719 4.7644 9 4.7644C10.1028 4.7644 11 5.5494 11 6.5144ZM9 9.5144C8.90111 9.5144 8.80444 9.54373 8.72221 9.59867C8.63999 9.65361 8.5759 9.7317 8.53806 9.82306C8.50022 9.91443 8.49031 10.015 8.50961 10.1119C8.5289 10.2089 8.57652 10.298 8.64645 10.368C8.71637 10.4379 8.80546 10.4855 8.90245 10.5048C8.99945 10.5241 9.09998 10.5142 9.19134 10.4763C9.2827 10.4385 9.36079 10.3744 9.41573 10.2922C9.47068 10.21 9.5 10.1133 9.5 10.0144C9.5 9.8818 9.44732 9.75462 9.35355 9.66085C9.25979 9.56708 9.13261 9.5144 9 9.5144Z"/>
</mask>
<path d="M11 6.5144C11 7.40534 10.2353 8.14284 9.25 8.25065V8.5144C9.25 8.58071 9.22366 8.6443 9.17678 8.69118C9.12989 8.73807 9.0663 8.7644 9 8.7644C8.9337 8.7644 8.87011 8.73807 8.82322 8.69118C8.77634 8.6443 8.75 8.58071 8.75 8.5144V8.0144C8.75 7.9481 8.77634 7.88451 8.82322 7.83763C8.87011 7.79074 8.9337 7.7644 9 7.7644C9.82719 7.7644 10.5 7.20378 10.5 6.5144C10.5 5.82503 9.82719 5.2644 9 5.2644C8.17281 5.2644 7.5 5.82503 7.5 6.5144C7.5 6.58071 7.47366 6.6443 7.42678 6.69118C7.37989 6.73807 7.3163 6.7644 7.25 6.7644C7.1837 6.7644 7.12011 6.73807 7.07322 6.69118C7.02634 6.6443 7 6.58071 7 6.5144C7 5.5494 7.89719 4.7644 9 4.7644C10.1028 4.7644 11 5.5494 11 6.5144ZM9 9.5144C8.90111 9.5144 8.80444 9.54373 8.72221 9.59867C8.63999 9.65361 8.5759 9.7317 8.53806 9.82306C8.50022 9.91443 8.49031 10.015 8.50961 10.1119C8.5289 10.2089 8.57652 10.298 8.64645 10.368C8.71637 10.4379 8.80546 10.4855 8.90245 10.5048C8.99945 10.5241 9.09998 10.5142 9.19134 10.4763C9.2827 10.4385 9.36079 10.3744 9.41573 10.2922C9.47068 10.21 9.5 10.1133 9.5 10.0144C9.5 9.8818 9.44732 9.75462 9.35355 9.66085C9.25979 9.56708 9.13261 9.5144 9 9.5144Z" fill="#666666"/>
<path d="M9.25 8.25065L8.81492 4.27439L5.25 4.66446V8.25065H9.25ZM7 6.5144H11H7ZM11 6.5144H7C7 4.93147 8.23335 4.33802 8.81492 4.27439L9.25 8.25065L9.68508 12.2269C12.2373 11.9477 15 9.87921 15 6.5144H11ZM9.25 8.25065H5.25V8.5144H9.25H13.25V8.25065H9.25ZM9.25 8.5144H5.25C5.25 7.51985 5.64508 6.56602 6.34835 5.86275L9.17678 8.69118L12.0052 11.5196C12.8022 10.7226 13.25 9.64156 13.25 8.5144H9.25ZM9.17678 8.69118L6.34835 5.86275C7.05162 5.15948 8.00545 4.7644 9 4.7644V8.7644V12.7644C10.1272 12.7644 11.2082 12.3166 12.0052 11.5196L9.17678 8.69118ZM9 8.7644V4.7644C9.99455 4.7644 10.9484 5.15949 11.6517 5.86275L8.82322 8.69118L5.9948 11.5196C6.79183 12.3166 7.87284 12.7644 9 12.7644V8.7644ZM8.82322 8.69118L11.6517 5.86275C12.3549 6.56602 12.75 7.51984 12.75 8.5144H8.75H4.75C4.75 9.64157 5.19777 10.7226 5.9948 11.5196L8.82322 8.69118ZM8.75 8.5144H12.75V8.0144H8.75H4.75V8.5144H8.75ZM8.75 8.0144H12.75C12.75 9.00897 12.3549 9.96279 11.6517 10.6661L8.82322 7.83763L5.9948 5.0092C5.19777 5.80623 4.75 6.88724 4.75 8.0144H8.75ZM8.82322 7.83763L11.6517 10.6661C10.9484 11.3693 9.99455 11.7644 9 11.7644V7.7644V3.7644C7.87284 3.7644 6.79183 4.21217 5.9948 5.0092L8.82322 7.83763ZM9 7.7644V11.7644C11.3224 11.7644 14.5 10.0649 14.5 6.5144H10.5H6.5C6.5 5.48844 7.01015 4.73278 7.4995 4.325C7.98126 3.92355 8.52378 3.7644 9 3.7644V7.7644ZM10.5 6.5144H14.5C14.5 2.96391 11.3224 1.2644 9 1.2644V5.2644V9.2644C8.52378 9.2644 7.98126 9.10526 7.4995 8.70381C7.01015 8.29603 6.5 7.54037 6.5 6.5144H10.5ZM9 5.2644V1.2644C6.67763 1.2644 3.5 2.96391 3.5 6.5144H7.5H11.5C11.5 7.54037 10.9898 8.29603 10.5005 8.70381C10.0187 9.10526 9.47622 9.2644 9 9.2644V5.2644ZM7.5 6.5144H3.5C3.5 5.51984 3.89509 4.56601 4.59835 3.86275L7.42678 6.69118L10.2552 9.51961C11.0522 8.72258 11.5 7.64158 11.5 6.5144H7.5ZM7.42678 6.69118L4.59835 3.86275C5.30161 3.15949 6.25544 2.7644 7.25 2.7644V6.7644V10.7644C8.37717 10.7644 9.45818 10.3166 10.2552 9.51961L7.42678 6.69118ZM7.25 6.7644V2.7644C8.24456 2.7644 9.19839 3.15949 9.90165 3.86275L7.07322 6.69118L4.2448 9.51961C5.04182 10.3166 6.12283 10.7644 7.25 10.7644V6.7644ZM7.07322 6.69118L9.90165 3.86275C10.6049 4.56601 11 5.51984 11 6.5144H7H3C3 7.64158 3.44777 8.72258 4.2448 9.51961L7.07322 6.69118ZM7 6.5144H11C11 7.32743 10.6134 7.94402 10.2204 8.28786C9.83464 8.62542 9.39222 8.7644 9 8.7644V4.7644V0.764404C6.20653 0.764404 3 2.8552 3 6.5144H7ZM9 4.7644V8.7644C8.60778 8.7644 8.16536 8.62542 7.77956 8.28786C7.3866 7.94402 7 7.32743 7 6.5144H11H15C15 2.8552 11.7935 0.764404 9 0.764404V4.7644ZM9 9.5144V5.5144C8.10998 5.5144 7.23995 5.77833 6.49993 6.27279L8.72221 9.59867L10.9445 12.9245C10.3689 13.3091 9.69224 13.5144 9 13.5144V9.5144ZM8.72221 9.59867L6.49993 6.27279C5.75992 6.76725 5.18314 7.47006 4.84254 8.29233L8.53806 9.82306L12.2336 11.3538C11.9687 11.9933 11.5201 12.54 10.9445 12.9245L8.72221 9.59867ZM8.53806 9.82306L4.84254 8.29233C4.50195 9.1146 4.41283 10.0194 4.58647 10.8923L8.50961 10.1119L12.4327 9.33159C12.5678 10.0105 12.4985 10.7143 12.2336 11.3538L8.53806 9.82306ZM8.50961 10.1119L4.58647 10.8923C4.7601 11.7652 5.18869 12.5671 5.81802 13.1964L8.64645 10.368L11.4749 7.53953C11.9644 8.02901 12.2977 8.65265 12.4327 9.33159L8.50961 10.1119ZM8.64645 10.368L5.81802 13.1964C6.44735 13.8257 7.24917 14.2543 8.12209 14.4279L8.90245 10.5048L9.68282 6.58166C10.3618 6.71671 10.9854 7.05005 11.4749 7.53953L8.64645 10.368ZM8.90245 10.5048L8.12209 14.4279C8.99501 14.6016 9.89981 14.5125 10.7221 14.1719L9.19134 10.4763L7.66061 6.78083C8.30015 6.51592 9.00388 6.44661 9.68282 6.58166L8.90245 10.5048ZM9.19134 10.4763L10.7221 14.1719C11.5443 13.8313 12.2471 13.2545 12.7416 12.5145L9.41573 10.2922L6.08986 8.06991C6.47444 7.49434 7.02107 7.04573 7.66061 6.78083L9.19134 10.4763ZM9.41573 10.2922L12.7416 12.5145C13.2361 11.7744 13.5 10.9044 13.5 10.0144H9.5H5.5C5.5 9.32217 5.70527 8.64548 6.08986 8.06991L9.41573 10.2922ZM9.5 10.0144H13.5C13.5 8.82093 13.0259 7.67634 12.182 6.83242L9.35355 9.66085L6.52513 12.4893C5.86875 11.8329 5.5 10.9427 5.5 10.0144H9.5ZM9.35355 9.66085L12.182 6.83242C11.3381 5.98851 10.1935 5.5144 9 5.5144V9.5144V13.5144C8.07174 13.5144 7.1815 13.1457 6.52513 12.4893L9.35355 9.66085Z" fill="#666666" mask="url(#path-2-inside-1_45_4169)"/>
</svg>
