<svg width="25" height="22" viewBox="0 0 25 22" fill="none" xmlns="http://www.w3.org/2000/svg">
<path fill-rule="evenodd" clip-rule="evenodd" d="M10.7496 1.29385C11.1968 0.954313 11.7429 0.770508 12.3044 0.770508C12.866 0.770508 13.4121 0.954313 13.8593 1.29385L14.9907 2.15271C18.3145 4.67772 21.1618 7.77468 23.3993 11.2984L23.7627 11.8693C23.9273 12.1285 24.0192 12.4271 24.0289 12.7339C24.0386 13.0408 23.9658 13.3446 23.8179 13.6137C23.6701 13.8827 23.4527 14.1072 23.1885 14.2635C22.9242 14.4198 22.6229 14.5024 22.3159 14.5024H21.1313C21.1999 16.0796 21.1142 17.6584 20.8742 19.2201C20.7586 19.9718 20.3776 20.6573 19.8002 21.1523C19.2228 21.6473 18.4872 21.9191 17.7267 21.9184H14.4473V16.2681C14.4473 15.6998 14.2215 15.1548 13.8197 14.7529C13.4178 14.351 12.8728 14.1253 12.3044 14.1253C11.7361 14.1253 11.1911 14.351 10.7892 14.7529C10.3874 15.1548 10.1616 15.6998 10.1616 16.2681V21.9184H6.88216C6.12231 21.9172 5.38787 21.6448 4.81113 21.1501C4.23439 20.6553 3.85328 19.9709 3.73644 19.2201C3.49644 17.6584 3.41073 16.0778 3.4793 14.5024H2.29301C1.98601 14.5024 1.68465 14.4198 1.42043 14.2635C1.15621 14.1072 0.938818 13.8827 0.790973 13.6137C0.643127 13.3446 0.570252 13.0408 0.579959 12.7339C0.589666 12.4271 0.6816 12.1285 0.846157 11.8693L1.20787 11.2967C3.44602 7.77343 6.29394 4.67706 9.61816 2.15271L10.7496 1.29385Z" fill="#999999"/>
</svg>
