<svg width="24" height="24" viewBox="0 0 24 24" fill="none" xmlns="http://www.w3.org/2000/svg">
<path d="M0 5C0 3.34531 1.34531 2 3 2H21C22.6547 2 24 3.34531 24 5V20C24 21.6547 22.6547 23 21 23H3C1.34531 23 0 21.6547 0 20V5ZM15.1781 9.99219C14.9672 9.68281 14.6203 9.5 14.25 9.5C13.8797 9.5 13.5281 9.68281 13.3219 9.99219L9.24375 15.9734L8.00156 14.4219C7.78594 14.1547 7.4625 14 7.125 14C6.7875 14 6.45938 14.1547 6.24844 14.4219L3.24844 18.1719C2.97656 18.5094 2.925 18.9734 3.1125 19.3625C3.3 19.7516 3.69375 20 4.125 20H8.625H10.125H19.875C20.2922 20 20.6766 19.7703 20.8688 19.4C21.0609 19.0297 21.0375 18.5844 20.8031 18.2422L15.1781 9.99219ZM5.25 9.5C5.84674 9.5 6.41903 9.26295 6.84099 8.84099C7.26295 8.41903 7.5 7.84674 7.5 7.25C7.5 6.65326 7.26295 6.08097 6.84099 5.65901C6.41903 5.23705 5.84674 5 5.25 5C4.65326 5 4.08097 5.23705 3.65901 5.65901C3.23705 6.08097 3 6.65326 3 7.25C3 7.84674 3.23705 8.41903 3.65901 8.84099C4.08097 9.26295 4.65326 9.5 5.25 9.5Z" fill="white"/>
</svg>
