<svg width="187" height="180" viewBox="0 0 187 180" fill="none" xmlns="http://www.w3.org/2000/svg">
<path d="M3.49945 85.2401C4.05176 74.008 6.79123 63.3914 11.4417 53.3429C14.6451 46.419 18.688 40.0987 23.471 34.3347C32.1976 23.8246 42.6584 15.8592 54.6546 10.2136C60.6637 7.38486 66.8938 5.25443 73.3227 3.82232C75.8965 3.24237 78.4923 2.7571 81.0993 2.41387C82.9771 2.16532 84.8771 1.98778 86.766 1.83392C89.8258 1.57353 92.8856 1.51435 95.9454 1.58537C98.7622 1.64455 101.568 1.88126 104.374 2.21266C106.263 2.43754 108.14 2.7216 110.007 3.04116C114.116 3.76314 118.159 4.79284 122.147 6.08293C130.631 8.85249 138.606 12.7938 146.029 18.0015C156.633 25.4461 165.415 34.8318 172.142 46.3835C176.925 54.5856 180.272 63.4151 182.183 72.8718C182.769 75.7597 183.166 78.6713 183.465 81.6183C183.951 86.5302 183.973 91.4538 183.652 96.3656C183.31 101.739 182.393 107.03 181.012 112.225C177.997 123.552 172.949 133.743 166.012 142.856C157.583 153.923 147.244 162.385 135.237 168.528C128.587 171.937 121.65 174.446 114.437 176.103C111.985 176.671 109.51 177.144 107.025 177.511C105.335 177.76 103.623 177.925 101.91 178.103C97.8674 178.529 93.8356 178.446 89.7926 178.399C87.2189 178.375 84.6672 178.044 82.1045 177.736C80.2818 177.511 78.4703 177.227 76.6587 176.896C71.2792 175.925 66.0211 174.434 60.8846 172.481C52.4674 169.274 44.6246 164.882 37.4003 159.249C28.232 152.088 20.599 143.389 14.6782 132.997C10.2045 125.15 7.01215 116.735 5.13429 107.763C4.55989 105.018 4.12908 102.224 3.83083 99.4192C3.65409 97.7859 3.53259 96.1526 3.46631 94.5193M107.146 117.232C107.224 116.912 107.312 116.723 107.312 116.545C107.334 115.895 107.334 115.232 107.334 114.581C107.334 97.5137 107.334 80.4466 107.334 63.3795C107.334 62.7878 107.334 62.196 107.334 61.6042C107.334 61.4148 107.378 61.2136 107.4 61.0242C107.411 60.8822 107.676 60.681 107.809 60.7165C108.174 60.7994 108.527 60.894 108.881 60.9651C112.205 61.6279 115.409 62.7167 118.491 64.1962C122.854 66.2911 126.091 69.6525 128.013 74.3867C129.018 76.8722 129.714 79.4524 129.968 82.151C130.189 84.5654 130.399 86.9799 130.388 89.4181C130.377 92.6966 130.365 95.9751 130.034 99.2535C129.714 102.414 128.952 105.432 127.703 108.32C127.261 109.326 126.731 110.296 126.113 111.196C123.981 114.249 121.308 116.593 118.06 118.179C115.486 119.433 112.791 120.274 110.029 120.901C108.295 121.303 106.55 121.611 104.782 121.848C102.595 122.144 100.408 122.44 98.1988 122.487C95.382 122.546 92.5652 122.511 89.7485 122.487C89.0194 122.487 88.2683 122.475 87.5502 122.357C85.9154 122.096 84.2585 122.037 82.6236 121.777C79.5307 121.303 76.4709 120.652 73.4884 119.658C70.9036 118.794 68.4734 117.599 66.22 115.954C63.0387 113.61 60.7852 110.521 59.3934 106.675C58.3109 103.704 57.7806 100.626 57.5929 97.4663C57.5376 96.555 57.5266 95.6318 57.4714 94.7086C57.1842 90.1756 57.4161 85.6543 57.9463 81.1568C58.2777 78.328 59.1172 75.6532 60.3102 73.1322C61.6579 70.2679 63.6131 67.9481 66.0874 66.1254C67.3577 65.1904 68.7054 64.4211 70.1193 63.8056C71.5332 63.1902 72.9692 62.5984 74.4494 62.1841C74.9244 62.0539 75.3884 61.9001 75.8633 61.758C76.1726 61.6634 76.3494 61.3911 76.3604 61.0242C76.3604 60.894 76.3604 60.7638 76.3604 60.6337C76.3162 57.6156 76.272 54.5975 76.2279 51.5793C76.2279 51.319 76.1726 51.0586 76.1395 50.7982C76.1174 50.668 75.8744 50.4313 75.7418 50.4431C75.4988 50.4431 75.2447 50.4431 75.0128 50.4905C72.4832 50.9402 69.9426 51.3781 67.4351 52.0054C63.1381 53.0706 58.9295 54.4318 54.8755 56.3255C50.2361 58.4914 45.9501 61.2373 42.2165 64.93C38.1294 68.9778 35.1248 73.7831 33.4237 79.4761C31.7668 84.9915 31.3801 90.649 32.1202 96.4011C32.8714 102.189 34.9812 107.361 38.284 111.989C40.0404 114.451 42.0839 116.628 44.3153 118.581C46.9774 120.913 49.8826 122.866 52.9534 124.523C60.1777 128.44 67.888 130.665 75.8633 131.979C77.0674 132.18 78.2825 132.334 79.4976 132.524C79.7185 132.559 79.9504 132.831 79.9615 133.068C80.0278 134.974 80.0499 136.879 79.8068 138.761C79.6853 139.672 79.6191 140.572 79.365 141.471C78.901 143.164 77.8517 144.134 76.3162 144.537C75.543 144.738 74.7587 144.892 73.9634 144.951C71.4559 145.141 68.9484 145.271 66.4409 145.436C65.7118 145.484 64.9717 145.567 64.2427 145.638C63.6683 145.697 63.1823 145.993 62.8067 146.431C62.5195 146.762 62.2654 147.141 62.0666 147.543C61.5143 148.632 61.5143 149.804 61.6026 150.999C61.6689 151.875 61.9672 152.668 62.4643 153.355C63.127 154.29 63.9997 154.846 65.1374 154.798C65.9328 154.763 66.7281 154.775 67.5234 154.704C70.3954 154.479 73.2785 154.479 76.1616 154.455C78.3046 154.432 80.4475 154.408 82.5905 154.408C92.5211 154.42 102.441 154.432 112.371 154.479C114.757 154.479 117.143 154.633 119.54 154.704C120.457 154.739 121.374 154.763 122.291 154.798C123.219 154.846 123.948 154.42 124.588 153.757C125.03 153.284 125.35 152.715 125.527 152.088C125.693 151.532 125.814 150.94 125.837 150.348C125.87 149.224 125.66 148.123 125.085 147.153C124.566 146.277 123.881 145.673 122.865 145.614C122.313 145.578 121.771 145.472 121.219 145.46C118.701 145.425 116.204 145.141 113.697 144.975C112.78 144.916 111.863 144.75 110.979 144.525C109.422 144.135 108.395 143.081 107.975 141.412C107.831 140.844 107.676 140.264 107.632 139.684C107.467 137.66 107.279 135.636 107.323 133.589C107.323 133.4 107.323 133.186 107.4 133.009C107.467 132.843 107.61 132.689 107.754 132.595C107.908 132.5 108.096 132.464 108.284 132.453C109.996 132.299 111.675 131.967 113.376 131.672C117.187 131.021 120.932 130.062 124.621 128.831C129.67 127.138 134.486 124.913 138.959 121.872C142.98 119.138 146.526 115.859 149.42 111.776C153.077 106.627 155.164 100.816 155.683 94.3891C155.982 90.649 155.783 86.9207 155.054 83.228C153.916 77.3812 151.552 72.1971 147.874 67.7114C145.311 64.5749 142.317 61.9948 139.004 59.8052C135.281 57.3552 131.304 55.497 127.162 54.053C121.153 51.9581 114.967 50.668 108.682 50.0052C108.494 49.9815 108.317 49.9697 108.129 49.946C107.588 49.875 107.345 49.6028 107.323 49.0702C107.312 48.5494 107.312 48.0168 107.312 47.496C107.279 40.868 107.323 34.2401 107.566 27.6121C107.621 26.1089 107.61 24.594 107.853 23.1027C108.041 21.8954 107.61 20.9131 106.826 20.0846C106.207 19.4336 105.445 19.0194 104.561 18.8773C103.634 18.7235 102.728 18.8181 101.844 19.114C100.673 19.4928 99.5023 19.8952 98.3424 20.2976C94.5646 21.6232 90.7757 22.9133 86.8875 23.8483C84.0265 24.5466 81.1434 25.1621 78.2604 25.742C73.7535 26.6534 69.2356 27.5174 64.6625 28.0382C63.591 28.1565 62.8398 28.7246 62.3096 29.6951C61.1387 31.8729 61.6026 34.4886 62.6962 36.0154C63.1602 36.6545 63.7346 37.1161 64.5299 37.199C65.1374 37.2582 65.745 37.3647 66.3525 37.4475C66.8386 37.5067 67.3246 37.5541 67.8106 37.6132C69.3902 37.8144 70.9698 38.0156 72.5495 38.2168C73.5768 38.3589 74.6151 38.4891 75.6424 38.6784C76.3052 38.7968 76.9459 39.0453 77.5424 39.3886C78.2714 39.8028 78.8127 40.4183 79.1441 41.2231C79.3429 41.6965 79.5086 42.2055 79.5859 42.7144C79.7626 43.8743 79.9394 45.046 79.9615 46.2296C80.0499 51.0231 80.2045 55.8047 80.2597 60.5982C80.3812 71.558 80.4033 82.5179 80.1382 93.4896C79.9615 100.911 79.9725 108.32 79.9946 115.741C79.9946 116.072 80.0167 116.392 80.0388 116.723C80.0499 116.936 80.2929 117.208 80.5138 117.267C80.6905 117.315 80.8673 117.362 81.0551 117.398C82.2039 117.563 83.3637 117.741 84.5125 117.895C87.4287 118.309 90.356 118.534 93.3053 118.546C95.4483 118.546 97.5913 118.451 99.7343 118.285C102.187 118.096 104.606 117.788 107.124 117.303L107.146 117.232Z" fill="#F7A401"/>
</svg>
