<svg width="25" height="24" viewBox="0 0 25 24" fill="none" xmlns="http://www.w3.org/2000/svg">
<path d="M13.1775 19.957C13.4523 20.0209 13.4775 20.3807 13.2099 20.4699L11.6299 20.9899C7.65985 22.2699 5.56985 21.1999 4.27985 17.2299L2.99985 13.2799C1.71985 9.30992 2.77985 7.20992 6.74985 5.92992L7.27385 5.75639C7.67671 5.62297 8.06878 6.02703 7.95438 6.43571C7.89768 6.63828 7.84314 6.84968 7.78985 7.06992L6.80985 11.2599C5.70985 15.9699 7.31985 18.5699 12.0299 19.6899L13.1775 19.957Z" fill="#999999"/>
<path d="M17.6702 3.20952L16.0002 2.81952C12.6602 2.02952 10.6702 2.67952 9.50018 5.09952C9.20018 5.70952 8.96018 6.44952 8.76018 7.29952L7.78018 11.4895C6.80018 15.6695 8.09018 17.7295 12.2602 18.7195L13.9402 19.1195C14.5202 19.2595 15.0602 19.3495 15.5602 19.3895C18.6802 19.6895 20.3402 18.2295 21.1802 14.6195L22.1602 10.4395C23.1402 6.25952 21.8602 4.18952 17.6702 3.20952ZM15.7902 13.3295C15.7002 13.6695 15.4002 13.8895 15.0602 13.8895C15.0002 13.8895 14.9402 13.8795 14.8702 13.8695L11.9602 13.1295C11.5602 13.0295 11.3202 12.6195 11.4202 12.2195C11.5202 11.8195 11.9302 11.5795 12.3302 11.6795L15.2402 12.4195C15.6502 12.5195 15.8902 12.9295 15.7902 13.3295ZM18.7202 9.94952C18.6302 10.2895 18.3302 10.5095 17.9902 10.5095C17.9302 10.5095 17.8702 10.4995 17.8002 10.4895L12.9502 9.25952C12.5502 9.15952 12.3102 8.74952 12.4102 8.34952C12.5102 7.94952 12.9202 7.70952 13.3202 7.80952L18.1702 9.03952C18.5802 9.12952 18.8202 9.53952 18.7202 9.94952Z" fill="#999999"/>
</svg>
