<svg width="25" height="25" viewBox="0 0 25 25" fill="none" xmlns="http://www.w3.org/2000/svg">
<path d="M12.375 6.45435V9.78435" stroke="#818898" stroke-width="2" stroke-miterlimit="10" stroke-linecap="round"/>
<path d="M12.3949 2.0144C8.7149 2.0144 5.7349 4.9944 5.7349 8.6744V10.7744C5.7349 11.4544 5.4549 12.4744 5.1049 13.0544L3.8349 15.1744C3.0549 16.4844 3.5949 17.9444 5.0349 18.4244C9.8149 20.0144 14.9849 20.0144 19.7649 18.4244C21.1149 17.9744 21.6949 16.3944 20.9649 15.1744L19.6949 13.0544C19.3449 12.4744 19.0649 11.4444 19.0649 10.7744V8.6744C19.0549 5.0144 16.0549 2.0144 12.3949 2.0144Z" stroke="#818898" stroke-width="2" stroke-miterlimit="10" stroke-linecap="round"/>
<path d="M15.7049 18.8344C15.7049 20.6644 14.2049 22.1644 12.3749 22.1644C11.4649 22.1644 10.6249 21.7844 10.0249 21.1844C9.42492 20.5844 9.04492 19.7444 9.04492 18.8344" stroke="#818898" stroke-width="2" stroke-miterlimit="10"/>
</svg>
