<svg width="25" height="25" viewBox="0 0 25 25" fill="none" xmlns="http://www.w3.org/2000/svg">
<path d="M20.5652 14.0745L19.4352 12.1945C19.1852 11.7845 18.9652 10.9945 18.9652 10.5145V8.64445C18.9652 5.01445 16.0152 2.06445 12.3952 2.06445C8.7652 2.07445 5.8152 5.01445 5.8152 8.64445V10.5045C5.8152 10.9845 5.5952 11.7745 5.3552 12.1845L4.2252 14.0645C3.7952 14.7945 3.6952 15.6245 3.9652 16.3445C4.2352 17.0745 4.8452 17.6545 5.6452 17.9145C6.7252 18.2745 7.8152 18.5345 8.9252 18.7245C9.0352 18.7445 9.1452 18.7545 9.2552 18.7745C9.3952 18.7945 9.5452 18.8145 9.6952 18.8345C9.9552 18.8745 10.2152 18.9045 10.4852 18.9245C11.1152 18.9845 11.7552 19.0145 12.3952 19.0145C13.0252 19.0145 13.6552 18.9845 14.2752 18.9245C14.5052 18.9045 14.7352 18.8845 14.9552 18.8545C15.1352 18.8345 15.3152 18.8145 15.4952 18.7845C15.6052 18.7745 15.7152 18.7545 15.8252 18.7345C16.9452 18.5545 18.0552 18.2745 19.1352 17.9145C19.9052 17.6545 20.4952 17.0745 20.7752 16.3345C21.0552 15.5845 20.9752 14.7645 20.5652 14.0745ZM13.1252 10.0145C13.1252 10.4345 12.7852 10.7745 12.3652 10.7745C11.9452 10.7745 11.6052 10.4345 11.6052 10.0145V6.91445C11.6052 6.49445 11.9452 6.15445 12.3652 6.15445C12.7852 6.15445 13.1252 6.49445 13.1252 6.91445V10.0145Z" fill="#077734"/>
<path d="M15.2047 20.0244C14.7847 21.1844 13.6747 22.0144 12.3747 22.0144C11.5847 22.0144 10.8047 21.6944 10.2547 21.1244C9.93469 20.8244 9.69469 20.4244 9.55469 20.0144C9.68469 20.0344 9.81469 20.0444 9.95469 20.0644C10.1847 20.0944 10.4247 20.1244 10.6647 20.1444C11.2347 20.1944 11.8147 20.2244 12.3947 20.2244C12.9647 20.2244 13.5347 20.1944 14.0947 20.1444C14.3047 20.1244 14.5147 20.1144 14.7147 20.0844C14.8747 20.0644 15.0347 20.0444 15.2047 20.0244Z" fill="#077734"/>
</svg>
