<svg width="12" height="13" viewBox="0 0 12 13" fill="none" xmlns="http://www.w3.org/2000/svg">
<path d="M8.76551 3.8994C8.73051 3.8944 8.69551 3.8944 8.66051 3.8994C7.88551 3.8744 7.27051 3.2394 7.27051 2.4594C7.27051 1.6644 7.91551 1.0144 8.71551 1.0144C9.51051 1.0144 10.1605 1.6594 10.1605 2.4594C10.1555 3.2394 9.54051 3.8744 8.76551 3.8994Z" fill="#077734"/>
<path d="M10.3948 7.36436C9.83481 7.73936 9.0498 7.87936 8.3248 7.78436C8.5148 7.37436 8.6148 6.91936 8.6198 6.43936C8.6198 5.93936 8.5098 5.46436 8.2998 5.04936C9.0398 4.94936 9.8248 5.08936 10.3898 5.46436C11.1798 5.98436 11.1798 6.83936 10.3948 7.36436Z" fill="#077734"/>
<path d="M3.22008 3.8994C3.25508 3.8944 3.29008 3.8944 3.32508 3.8994C4.10008 3.8744 4.71508 3.2394 4.71508 2.4594C4.71508 1.6594 4.07008 1.0144 3.27008 1.0144C2.47508 1.0144 1.83008 1.6594 1.83008 2.4594C1.83008 3.2394 2.44508 3.8744 3.22008 3.8994Z" fill="#077734"/>
<path d="M3.27555 6.43946C3.27555 6.92446 3.38055 7.38446 3.57055 7.79946C2.86555 7.87446 2.13055 7.72446 1.59055 7.36946C0.800547 6.84446 0.800547 5.98946 1.59055 5.46446C2.12555 5.10446 2.88055 4.95946 3.59055 5.03946C3.38555 5.45946 3.27555 5.93446 3.27555 6.43946Z" fill="#077734"/>
<path d="M6.06039 7.9494C6.02039 7.9444 5.97539 7.9444 5.93039 7.9494C5.01039 7.9194 4.27539 7.1644 4.27539 6.2344C4.28039 5.2844 5.04539 4.5144 6.00039 4.5144C6.95039 4.5144 7.72039 5.2844 7.72039 6.2344C7.71539 7.1644 6.98539 7.9194 6.06039 7.9494Z" fill="#077734"/>
<path d="M4.43539 8.98447C3.68039 9.48947 3.68039 10.3195 4.43539 10.8195C5.29539 11.3945 6.70539 11.3945 7.56539 10.8195C8.32039 10.3145 8.32039 9.48447 7.56539 8.98447C6.71039 8.40947 5.30039 8.40947 4.43539 8.98447Z" fill="#077734"/>
</svg>
