<svg width="15" height="16" viewBox="0 0 15 16" fill="none" xmlns="http://www.w3.org/2000/svg">
<path d="M15 16H0V0H15V16Z" stroke="#E5E7EB"/>
<g clip-path="url(#clip0_104_3451)">
<path d="M3.375 1.5C3.87228 1.5 4.34919 1.69754 4.70083 2.04917C5.05246 2.40081 5.25 2.87772 5.25 3.375C5.25 3.87228 5.05246 4.34919 4.70083 4.70083C4.34919 5.05246 3.87228 5.25 3.375 5.25C2.87772 5.25 2.40081 5.05246 2.04917 4.70083C1.69754 4.34919 1.5 3.87228 1.5 3.375C1.5 2.87772 1.69754 2.40081 2.04917 2.04917C2.40081 1.69754 2.87772 1.5 3.375 1.5ZM12 1.5C12.4973 1.5 12.9742 1.69754 13.3258 2.04917C13.6775 2.40081 13.875 2.87772 13.875 3.375C13.875 3.87228 13.6775 4.34919 13.3258 4.70083C12.9742 5.05246 12.4973 5.25 12 5.25C11.5027 5.25 11.0258 5.05246 10.6742 4.70083C10.3225 4.34919 10.125 3.87228 10.125 3.375C10.125 2.87772 10.3225 2.40081 10.6742 2.04917C11.0258 1.69754 11.5027 1.5 12 1.5ZM0 8.50078C0 7.12031 1.12031 6 2.50078 6H3.50156C3.87422 6 4.22813 6.08203 4.54688 6.22734C4.51641 6.39609 4.50234 6.57188 4.50234 6.75C4.50234 7.64531 4.89609 8.44922 5.51719 9C5.5125 9 5.50781 9 5.50078 9H0.499219C0.225 9 0 8.775 0 8.50078ZM9.49922 9C9.49453 9 9.48984 9 9.48281 9C10.1062 8.44922 10.4977 7.64531 10.4977 6.75C10.4977 6.57188 10.4812 6.39844 10.4531 6.22734C10.7719 6.07969 11.1258 6 11.4984 6H12.4992C13.8797 6 15 7.12031 15 8.50078C15 8.77734 14.775 9 14.5008 9H9.49922ZM5.25 6.75C5.25 6.15326 5.48705 5.58097 5.90901 5.15901C6.33097 4.73705 6.90326 4.5 7.5 4.5C8.09674 4.5 8.66903 4.73705 9.09099 5.15901C9.51295 5.58097 9.75 6.15326 9.75 6.75C9.75 7.34674 9.51295 7.91903 9.09099 8.34099C8.66903 8.76295 8.09674 9 7.5 9C6.90326 9 6.33097 8.76295 5.90901 8.34099C5.48705 7.91903 5.25 7.34674 5.25 6.75ZM3 12.8742C3 11.1492 4.39922 9.75 6.12422 9.75H8.87578C10.6008 9.75 12 11.1492 12 12.8742C12 13.2188 11.7211 13.5 11.3742 13.5H3.62578C3.28125 13.5 3 13.2211 3 12.8742Z" fill="#6B7280"/>
</g>
<defs>
<clipPath id="clip0_104_3451">
<path d="M0 1.5H15V13.5H0V1.5Z" fill="white"/>
</clipPath>
</defs>
</svg>
