<svg width="20" height="21" viewBox="0 0 20 21" fill="none" xmlns="http://www.w3.org/2000/svg">
<g clip-path="url(#clip0_104_4187)">
<path d="M10 10.5C11.5155 10.5 12.969 9.97322 14.0406 9.03553C15.1122 8.09785 15.7143 6.82608 15.7143 5.5C15.7143 4.17392 15.1122 2.90215 14.0406 1.96447C12.969 1.02678 11.5155 0.5 10 0.5C8.48448 0.5 7.03103 1.02678 5.95939 1.96447C4.88775 2.90215 4.28571 4.17392 4.28571 5.5C4.28571 6.82608 4.88775 8.09785 5.95939 9.03553C7.03103 9.97322 8.48448 10.5 10 10.5ZM7.95982 12.375C3.5625 12.375 0 15.4922 0 19.3398C0 19.9805 0.59375 20.5 1.32589 20.5H18.6741C19.4062 20.5 20 19.9805 20 19.3398C20 15.4922 16.4375 12.375 12.0402 12.375H7.95982Z" fill="#4B5563"/>
</g>
<defs>
<clipPath id="clip0_104_4187">
<path d="M0 0.5H20V20.5H0V0.5Z" fill="white"/>
</clipPath>
</defs>
</svg>
