<svg width="20" height="21" viewBox="0 0 20 21" fill="none" xmlns="http://www.w3.org/2000/svg">
<path d="M15.4362 10.5972L11.4065 9.10815L9.92212 5.07534C9.83422 4.83654 9.67518 4.63044 9.46647 4.48486C9.25775 4.33928 9.0094 4.26123 8.75493 4.26123C8.50046 4.26123 8.25212 4.33928 8.0434 4.48486C7.83469 4.63044 7.67565 4.83654 7.58775 5.07534L6.094 9.10815L2.06118 10.5925C1.82238 10.6804 1.61628 10.8395 1.4707 11.0482C1.32513 11.2569 1.24707 11.5052 1.24707 11.7597C1.24707 12.0142 1.32513 12.2625 1.4707 12.4712C1.61628 12.68 1.82238 12.839 2.06118 12.9269L6.094 14.4207L7.57837 18.4535C7.66628 18.6923 7.82531 18.8984 8.03403 19.0439C8.24274 19.1895 8.49109 19.2676 8.74556 19.2676C9.00003 19.2676 9.24838 19.1895 9.45709 19.0439C9.6658 18.8984 9.82484 18.6923 9.91275 18.4535L11.4065 14.4207L15.4393 12.9363C15.6781 12.8484 15.8842 12.6893 16.0298 12.4806C16.1754 12.2719 16.2534 12.0236 16.2534 11.7691C16.2534 11.5146 16.1754 11.2663 16.0298 11.0576C15.8842 10.8488 15.6781 10.6898 15.4393 10.6019L15.4362 10.5972ZM10.7034 13.3441C10.6185 13.3754 10.5415 13.4247 10.4776 13.4886C10.4136 13.5525 10.3643 13.6296 10.3331 13.7144L8.75025 18.0027L7.17056 13.7175C7.13934 13.6318 7.08974 13.5539 7.02522 13.4894C6.96071 13.4249 6.88285 13.3753 6.79712 13.3441L2.51197 11.7644L6.79712 10.1847C6.88285 10.1535 6.96071 10.1039 7.02522 10.0394C7.08974 9.97486 7.13934 9.89701 7.17056 9.81128L8.75025 5.52612L10.3299 9.81128C10.3612 9.89612 10.4105 9.97316 10.4744 10.0371C10.5384 10.101 10.6154 10.1503 10.7002 10.1816L14.9885 11.7644L10.7034 13.3441ZM11.2502 3.6394C11.2502 3.47364 11.3161 3.31467 11.4333 3.19746C11.5505 3.08025 11.7095 3.0144 11.8752 3.0144H13.1252V1.7644C13.1252 1.59864 13.1911 1.43967 13.3083 1.32246C13.4255 1.20525 13.5845 1.1394 13.7502 1.1394C13.916 1.1394 14.075 1.20525 14.1922 1.32246C14.3094 1.43967 14.3752 1.59864 14.3752 1.7644V3.0144H15.6252C15.791 3.0144 15.95 3.08025 16.0672 3.19746C16.1844 3.31467 16.2502 3.47364 16.2502 3.6394C16.2502 3.80516 16.1844 3.96414 16.0672 4.08135C15.95 4.19856 15.791 4.2644 15.6252 4.2644H14.3752V5.5144C14.3752 5.68016 14.3094 5.83914 14.1922 5.95635C14.075 6.07356 13.916 6.1394 13.7502 6.1394C13.5845 6.1394 13.4255 6.07356 13.3083 5.95635C13.1911 5.83914 13.1252 5.68016 13.1252 5.5144V4.2644H11.8752C11.7095 4.2644 11.5505 4.19856 11.4333 4.08135C11.3161 3.96414 11.2502 3.80516 11.2502 3.6394ZM19.3752 7.3894C19.3752 7.55516 19.3094 7.71414 19.1922 7.83135C19.075 7.94856 18.916 8.0144 18.7502 8.0144H18.1252V8.6394C18.1252 8.80516 18.0594 8.96414 17.9422 9.08135C17.825 9.19856 17.666 9.2644 17.5002 9.2644C17.3345 9.2644 17.1755 9.19856 17.0583 9.08135C16.9411 8.96414 16.8752 8.80516 16.8752 8.6394V8.0144H16.2502C16.0845 8.0144 15.9255 7.94856 15.8083 7.83135C15.6911 7.71414 15.6252 7.55516 15.6252 7.3894C15.6252 7.22364 15.6911 7.06467 15.8083 6.94746C15.9255 6.83025 16.0845 6.7644 16.2502 6.7644H16.8752V6.1394C16.8752 5.97364 16.9411 5.81467 17.0583 5.69746C17.1755 5.58025 17.3345 5.5144 17.5002 5.5144C17.666 5.5144 17.825 5.58025 17.9422 5.69746C18.0594 5.81467 18.1252 5.97364 18.1252 6.1394V6.7644H18.7502C18.916 6.7644 19.075 6.83025 19.1922 6.94746C19.3094 7.06467 19.3752 7.22364 19.3752 7.3894Z" fill="#666666"/>
</svg>
