<svg width="23" height="22" viewBox="0 0 23 22" fill="none" xmlns="http://www.w3.org/2000/svg">
<path d="M18.9252 8.45165C17.266 8.45165 16.5877 7.27832 17.4127 5.83915C17.8893 5.00498 17.6052 3.94165 16.771 3.46498L15.1852 2.55748C14.461 2.12665 13.526 2.38332 13.0952 3.10748L12.9943 3.28165C12.1693 4.72082 10.8127 4.72082 9.9785 3.28165L9.87766 3.10748C9.46516 2.38332 8.53016 2.12665 7.806 2.55748L6.22016 3.46498C5.386 3.94165 5.10183 5.01415 5.5785 5.84832C6.41266 7.27832 5.73433 8.45165 4.07516 8.45165C3.12183 8.45165 2.3335 9.23081 2.3335 10.1933V11.8066C2.3335 12.76 3.11266 13.5483 4.07516 13.5483C5.73433 13.5483 6.41266 14.7216 5.5785 16.1608C5.10183 16.995 5.386 18.0583 6.22016 18.535L7.806 19.4425C8.53016 19.8733 9.46516 19.6166 9.896 18.8925L9.99683 18.7183C10.8218 17.2791 12.1785 17.2791 13.0127 18.7183L13.1135 18.8925C13.5443 19.6166 14.4793 19.8733 15.2035 19.4425L16.7893 18.535C17.6235 18.0583 17.9077 16.9858 17.431 16.1608C16.5968 14.7216 17.2752 13.5483 18.9343 13.5483C19.8877 13.5483 20.676 12.7691 20.676 11.8066V10.1933C20.6668 9.23998 19.8877 8.45165 18.9252 8.45165ZM11.5002 13.9791C9.85933 13.9791 8.521 12.6408 8.521 11C8.521 9.35915 9.85933 8.02082 11.5002 8.02082C13.141 8.02082 14.4793 9.35915 14.4793 11C14.4793 12.6408 13.141 13.9791 11.5002 13.9791Z" fill="#999999"/>
</svg>
