<svg width="25" height="24" viewBox="0 0 25 24" fill="none" xmlns="http://www.w3.org/2000/svg">
<path d="M17.3301 15.6402C18.0001 15.2002 18.8801 15.6802 18.8801 16.4802V17.7702C18.8801 19.0402 17.8901 20.4002 16.7001 20.8002L13.5101 21.8602C12.9501 22.0502 12.0401 22.0502 11.4901 21.8602L8.30012 20.8002C7.10012 20.4002 6.12012 19.0402 6.12012 17.7702V16.4702C6.12012 15.6802 7.00012 15.2002 7.66012 15.6302L9.72012 16.9702C10.5101 17.5002 11.5101 17.7602 12.5101 17.7602C13.5101 17.7602 14.5101 17.5002 15.3001 16.9702L17.3301 15.6402Z" fill="#999999"/>
<path d="M20.48 6.45957L14.49 2.52957C13.41 1.81957 11.63 1.81957 10.55 2.52957L4.53002 6.45957C2.60002 7.70957 2.60002 10.5396 4.53002 11.7996L6.13002 12.8396L10.55 15.7196C11.63 16.4296 13.41 16.4296 14.49 15.7196L18.88 12.8396L20.25 11.9396V14.9996C20.25 15.4096 20.59 15.7496 21 15.7496C21.41 15.7496 21.75 15.4096 21.75 14.9996V10.0796C22.15 8.78957 21.74 7.28957 20.48 6.45957Z" fill="#999999"/>
</svg>
