<svg width="20" height="21" viewBox="0 0 20 21" fill="none" xmlns="http://www.w3.org/2000/svg">
<path d="M16.6922 6.94722L12.3172 2.57222C12.2591 2.5142 12.1902 2.46819 12.1143 2.43682C12.0384 2.40545 11.9571 2.38934 11.875 2.3894H4.375C4.04348 2.3894 3.72554 2.5211 3.49112 2.75552C3.2567 2.98994 3.125 3.30788 3.125 3.6394V17.3894C3.125 17.7209 3.2567 18.0389 3.49112 18.2733C3.72554 18.5077 4.04348 18.6394 4.375 18.6394H15.625C15.9565 18.6394 16.2745 18.5077 16.5089 18.2733C16.7433 18.0389 16.875 17.7209 16.875 17.3894V7.3894C16.8751 7.3073 16.859 7.226 16.8276 7.15012C16.7962 7.07425 16.7502 7.0053 16.6922 6.94722ZM12.5 4.523L14.7414 6.7644H12.5V4.523ZM15.625 17.3894H8.75V16.1394H9.375C9.54076 16.1394 9.69973 16.0736 9.81694 15.9563C9.93415 15.8391 10 15.6802 10 15.5144C10 15.3486 9.93415 15.1897 9.81694 15.0725C9.69973 14.9553 9.54076 14.8894 9.375 14.8894H8.75V13.6394H9.375C9.54076 13.6394 9.69973 13.5736 9.81694 13.4563C9.93415 13.3391 10 13.1802 10 13.0144C10 12.8486 9.93415 12.6897 9.81694 12.5725C9.69973 12.4553 9.54076 12.3894 9.375 12.3894H8.75V11.1394H9.375C9.54076 11.1394 9.69973 11.0736 9.81694 10.9563C9.93415 10.8391 10 10.6802 10 10.5144C10 10.3486 9.93415 10.1897 9.81694 10.0725C9.69973 9.95525 9.54076 9.8894 9.375 9.8894H8.75V9.2644C8.75 9.09864 8.68415 8.93967 8.56694 8.82246C8.44973 8.70525 8.29076 8.6394 8.125 8.6394C7.95924 8.6394 7.80027 8.70525 7.68306 8.82246C7.56585 8.93967 7.5 9.09864 7.5 9.2644V9.8894H6.875C6.70924 9.8894 6.55027 9.95525 6.43306 10.0725C6.31585 10.1897 6.25 10.3486 6.25 10.5144C6.25 10.6802 6.31585 10.8391 6.43306 10.9563C6.55027 11.0736 6.70924 11.1394 6.875 11.1394H7.5V12.3894H6.875C6.70924 12.3894 6.55027 12.4553 6.43306 12.5725C6.31585 12.6897 6.25 12.8486 6.25 13.0144C6.25 13.1802 6.31585 13.3391 6.43306 13.4563C6.55027 13.5736 6.70924 13.6394 6.875 13.6394H7.5V14.8894H6.875C6.70924 14.8894 6.55027 14.9553 6.43306 15.0725C6.31585 15.1897 6.25 15.3486 6.25 15.5144C6.25 15.6802 6.31585 15.8391 6.43306 15.9563C6.55027 16.0736 6.70924 16.1394 6.875 16.1394H7.5V17.3894H4.375V3.6394H11.25V7.3894C11.25 7.55516 11.3158 7.71414 11.4331 7.83135C11.5503 7.94856 11.7092 8.0144 11.875 8.0144H15.625V17.3894Z" fill="#666666"/>
</svg>
