<svg width="19" height="13" viewBox="0 0 19 13" fill="none" xmlns="http://www.w3.org/2000/svg">
<path d="M18.107 2.007C17.8468 1.87577 17.5549 1.82016 17.2647 1.8465C16.9744 1.87284 16.6974 1.98007 16.465 2.156C16.4342 2.1792 16.4051 2.2046 16.378 2.232L14.989 3.632C14.9105 2.64519 14.4638 1.72397 13.7376 1.05117C13.0115 0.378363 12.0589 0.00315301 11.069 0H3.953C2.90484 0.00079456 1.89984 0.417525 1.15868 1.15868C0.417525 1.89984 0.00079456 2.90484 0 3.953L0 8.7C0.00211635 9.74747 0.419367 10.7514 1.16033 11.4918C1.90128 12.2322 2.90552 12.6487 3.953 12.65H11.068C12.0626 12.6471 13.0194 12.2686 13.7468 11.5903C14.4743 10.912 14.9186 9.98397 14.991 8.992L16.379 10.379C16.4058 10.405 16.4342 10.4294 16.464 10.452C16.6971 10.6267 16.9742 10.7331 17.2643 10.7592C17.5545 10.7853 17.8461 10.7301 18.1067 10.5999C18.3672 10.4696 18.5864 10.2694 18.7395 10.0216C18.8927 9.77382 18.9739 9.4883 18.974 9.197V3.411C18.9746 3.11998 18.8936 2.83461 18.7404 2.58719C18.5872 2.33977 18.3678 2.14018 18.107 2.011V2.007ZM11.068 11.069H3.953C3.32467 11.0682 2.72226 10.8185 2.27768 10.3744C1.8331 9.93043 1.58259 9.32833 1.581 8.7V3.953C1.58179 3.32415 1.83196 2.72128 2.27662 2.27662C2.72128 1.83196 3.32415 1.58179 3.953 1.581H11.068C11.6968 1.58179 12.2997 1.83196 12.7444 2.27662C13.189 2.72128 13.4392 3.32415 13.44 3.953V8.7C13.4384 9.32816 13.188 9.9301 12.7437 10.3741C12.2993 10.8181 11.6972 11.0679 11.069 11.069H11.068ZM15.021 6.786V5.846L17.393 3.452L17.413 9.174L15.021 6.785V6.786Z" fill="#5E97D4"/>
</svg>
