<svg width="24" height="24" viewBox="0 0 24 24" fill="none" xmlns="http://www.w3.org/2000/svg">
<path d="M9.6 2H21.6C22.9238 2 24 3.17715 24 4.625V13.8125C24 15.2604 22.9238 16.4375 21.6 16.4375H9.6C8.27625 16.4375 7.2 15.2604 7.2 13.8125V4.625C7.2 3.17715 8.27625 2 9.6 2ZM17.85 6.37637C17.6813 6.10156 17.4 5.9375 17.1 5.9375C16.8 5.9375 16.5188 6.10156 16.35 6.37637L14.25 9.82168L13.6013 8.93164C13.4288 8.69785 13.17 8.5625 12.9 8.5625C12.63 8.5625 12.3675 8.69785 12.1988 8.93164L9.79875 12.2129C9.58125 12.5082 9.54 12.9143 9.69 13.2547C9.84 13.5951 10.155 13.8125 10.5 13.8125H13.5H15.3H20.7C21.0338 13.8125 21.3375 13.6115 21.495 13.2916C21.6525 12.9717 21.6338 12.582 21.45 12.2826L17.85 6.37637ZM12.6 5.9375C12.6 5.5894 12.4736 5.25556 12.2485 5.00942C12.0235 4.76328 11.7183 4.625 11.4 4.625C11.0817 4.625 10.7765 4.76328 10.5515 5.00942C10.3264 5.25556 10.2 5.5894 10.2 5.9375C10.2 6.2856 10.3264 6.61944 10.5515 6.86558C10.7765 7.11172 11.0817 7.25 11.4 7.25C11.7183 7.25 12.0235 7.11172 12.2485 6.86558C12.4736 6.61944 12.6 6.2856 12.6 5.9375ZM2.4 7.25H6V17.75V19.0625C6 19.7885 6.53625 20.375 7.2 20.375H12C12.6638 20.375 13.2 19.7885 13.2 19.0625V17.75H19.2V20.375C19.2 21.8229 18.1238 23 16.8 23H2.4C1.07625 23 0 21.8229 0 20.375V9.875C0 8.42715 1.07625 7.25 2.4 7.25ZM2.7 9.875C2.37 9.875 2.1 10.1703 2.1 10.5312V11.1875C2.1 11.5484 2.37 11.8438 2.7 11.8438H3.3C3.63 11.8438 3.9 11.5484 3.9 11.1875V10.5312C3.9 10.1703 3.63 9.875 3.3 9.875H2.7ZM2.7 14.1406C2.37 14.1406 2.1 14.4359 2.1 14.7969V15.4531C2.1 15.8141 2.37 16.1094 2.7 16.1094H3.3C3.63 16.1094 3.9 15.8141 3.9 15.4531V14.7969C3.9 14.4359 3.63 14.1406 3.3 14.1406H2.7ZM2.7 18.4062C2.37 18.4062 2.1 18.7016 2.1 19.0625V19.7188C2.1 20.0797 2.37 20.375 2.7 20.375H3.3C3.63 20.375 3.9 20.0797 3.9 19.7188V19.0625C3.9 18.7016 3.63 18.4062 3.3 18.4062H2.7ZM15.3 19.0625V19.7188C15.3 20.0797 15.57 20.375 15.9 20.375H16.5C16.83 20.375 17.1 20.0797 17.1 19.7188V19.0625C17.1 18.7016 16.83 18.4062 16.5 18.4062H15.9C15.57 18.4062 15.3 18.7016 15.3 19.0625Z" fill="white"/>
</svg>
